{
  "accessors": [
    {
      "bufferView": 2,
      "componentType": 5126,
      "count": 3456,
      "max": [
        51.97092819213867,
        48.07238006591797,
        53.30849075317383
      ],
      "min": [
        -46.95602035522461,
        -50.85456085205078,
        -45.61845016479492
      ],
      "type": "VEC3"
    },
    {
      "bufferView": 2,
      "byteOffset": 41472,
      "componentType": 5126,
      "count": 3456,
      "max": [
        0.9936292767524719,
        0.9936292767524719,
        0.9936292767524719
      ],
      "min": [
        -0.9936292767524719,
        -0.9936292767524719,
        -0.9936292767524719
      ],
      "type": "VEC3"
    },
    {
      "bufferView": 1,
      "componentType": 5126,
      "count": 3456,
      "max": [
        0.937529981136322,
        0.9994000196456909
      ],
      "min": [
        0.0005799999926239252,
        0.0002699999895412475
      ],
      "type": "VEC2"
    },
    {
      "bufferView": 0,
      "componentType": 5125,
      "count": 5184,
      "type": "SCALAR"
    },
    {
      "bufferView": 2,
      "byteOffset": 82944,
      "componentType": 5126,
      "count": 777,
      "max": [
        1.4851000308990479,
        4.868100166320801,
        0.36173999309539795
      ],
      "min": [
        -7.477489948272705,
        -1.328410029411316,
        -1.3620400428771973
      ],
      "type": "VEC3"
    },
    {
      "bufferView": 2,
      "byteOffset": 92268,
      "componentType": 5126,
      "count": 777,
      "max": [
        0.9935203790664673,
        0.9995952248573303,
        0.9877668619155884
      ],
      "min": [
        -0.9734002351760864,
        -0.99782794713974,
        -0.9976903796195984
      ],
      "type": "VEC3"
    },
    {
      "bufferView": 1,
      "byteOffset": 27648,
      "componentType": 5126,
      "count": 777,
      "max": [
        1.0,
        1.0
      ],
      "min": [
        0.0,
        0.0
      ],
      "type": "VEC2"
    },
    {
      "bufferView": 0,
      "byteOffset": 20736,
      "componentType": 5125,
      "count": 1143,
      "type": "SCALAR"
    },
    {
      "bufferView": 2,
      "byteOffset": 101592,
      "componentType": 5126,
      "count": 22124,
      "max": [
        5.353229999542236,
        3.5662100315093994,
        3.9032299518585205
      ],
      "min": [
        -2.7865400314331055,
        -1.5966600179672241,
        -3.794800043106079
      ],
      "type": "VEC3"
    },
    {
      "bufferView": 2,
      "byteOffset": 367080,
      "componentType": 5126,
      "count": 22124,
      "max": [
        1.0,
        0.9999999403953552,
        1.0
      ],
      "min": [
        -1.0,
        -0.9999945759773254,
        -1.0
      ],
      "type": "VEC3"
    },
    {
      "bufferView": 1,
      "byteOffset": 33864,
      "componentType": 5126,
      "count": 22124,
      "max": [
        0.9997100234031677,
        0.9999399781227112
      ],
      "min": [
        0.0001500000071246177,
        7.000000186963007e-05
      ],
      "type": "VEC2"
    },
    {
      "bufferView": 0,
      "byteOffset": 25308,
      "componentType": 5125,
      "count": 93525,
      "type": "SCALAR"
    },
    {
      "bufferView": 2,
      "byteOffset": 632568,
      "componentType": 5126,
      "count": 557,
      "max": [
        5.157040119171143,
        1.0624099969863892,
        1.2607100009918213
      ],
      "min": [
        -1.317639946937561,
        -0.18241000175476074,
        -2.3249499797821045
      ],
      "type": "VEC3"
    },
    {
      "bufferView": 2,
      "byteOffset": 639252,
      "componentType": 5126,
      "count": 557,
      "max": [
        0.9883478879928589,
        0.9999986290931702,
        0.99969881772995
      ],
      "min": [
        -0.9986670613288879,
        -0.9266791939735413,
        -0.9967718124389648
      ],
      "type": "VEC3"
    },
    {
      "bufferView": 1,
      "byteOffset": 210856,
      "componentType": 5126,
      "count": 557,
      "max": [
        1.0,
        1.0
      ],
      "min": [
        0.0,
        0.0
      ],
      "type": "VEC2"
    },
    {
      "bufferView": 1,
      "byteOffset": 215312,
      "componentType": 5126,
      "count": 557,
      "max": [
        1.0,
        1.0
      ],
      "min": [
        0.0,
        0.0
      ],
      "type": "VEC2"
    },
    {
      "bufferView": 0,
      "byteOffset": 399408,
      "componentType": 5125,
      "count": 753,
      "type": "SCALAR"
    },
    {
      "bufferView": 2,
      "byteOffset": 645936,
      "componentType": 5126,
      "count": 765,
      "max": [
        4.461289882659912,
        1.3511500358581543,
        3.2775299549102783
      ],
      "min": [
        -2.5487399101257324,
        -0.5581499934196472,
        -0.7463399767875671
      ],
      "type": "VEC3"
    },
    {
      "bufferView": 2,
      "byteOffset": 655116,
      "componentType": 5126,
      "count": 765,
      "max": [
        0.963111400604248,
        0.9999988675117493,
        0.9901122450828552
      ],
      "min": [
        -0.997747004032135,
        -0.3518015146255493,
        -0.9992058873176575
      ],
      "type": "VEC3"
    },
    {
      "bufferView": 1,
      "byteOffset": 219768,
      "componentType": 5126,
      "count": 765,
      "max": [
        1.0,
        1.0
      ],
      "min": [
        0.0,
        0.0
      ],
      "type": "VEC2"
    },
    {
      "bufferView": 1,
      "byteOffset": 225888,
      "componentType": 5126,
      "count": 765,
      "max": [
        1.0,
        1.0
      ],
      "min": [
        0.0,
        0.0
      ],
      "type": "VEC2"
    },
    {
      "bufferView": 0,
      "byteOffset": 402420,
      "componentType": 5125,
      "count": 891,
      "type": "SCALAR"
    },
    {
      "bufferView": 2,
      "byteOffset": 664296,
      "componentType": 5126,
      "count": 2280,
      "max": [
        2.3408401012420654,
        0.12144000083208084,
        2.040910005569458
      ],
      "min": [
        1.9891599416732788,
        -0.17288999259471893,
        1.743690013885498
      ],
      "type": "VEC3"
    },
    {
      "bufferView": 2,
      "byteOffset": 691656,
      "componentType": 5126,
      "count": 2280,
      "max": [
        0.994563102722168,
        0.9997561573982239,
        0.987891435623169
      ],
      "min": [
        -0.9958292841911316,
        -0.993674635887146,
        -0.9999146461486816
      ],
      "type": "VEC3"
    },
    {
      "bufferView": 0,
      "byteOffset": 405984,
      "componentType": 5125,
      "count": 3138,
      "type": "SCALAR"
    }
  ],
  "asset": {
    "extras": {
      "author": "luyssport (https://sketchfab.com/luyssport)",
      "license": "CC-BY-4.0 (http://creativecommons.org/licenses/by/4.0/)",
      "source": "https://sketchfab.com/3d-models/tol-fd7c646f80da45c786ad6e42a2a66412",
      "title": "Tol"
    },
    "generator": "Sketchfab-14.62.0",
    "version": "2.0"
  },
  "bufferViews": [
    {
      "buffer": 0,
      "byteLength": 418536,
      "name": "floatBufferViews",
      "target": 34963
    },
    {
      "buffer": 0,
      "byteLength": 232008,
      "byteOffset": 418536,
      "byteStride": 8,
      "name": "floatBufferViews",
      "target": 34962
    },
    {
      "buffer": 0,
      "byteLength": 719016,
      "byteOffset": 650544,
      "byteStride": 12,
      "name": "floatBufferViews",
      "target": 34962
    }
  ],
  "buffers": [
    {
      "byteLength": 1369560,
      "uri": "scene.bin"
    }
  ],
  "extensionsUsed": [
    "KHR_materials_unlit"
  ],
  "images": [
    {
      "uri": "textures/plants_baseColor.png"
    },
    {
      "uri": "textures/building_baseColor.jpeg"
    },
    {
      "uri": "textures/grass_baseColor.png"
    },
    {
      "uri": "textures/material_5_baseColor.jpeg"
    }
  ],
  "materials": [
    {
      "alphaMode": "BLEND",
      "extensions": {
        "KHR_materials_unlit": {}
      },
      "name": "material",
      "pbrMetallicRoughness": {
        "baseColorFactor": [
          0.0,
          0.0,
          0.0,
          0.0
        ],
        "metallicFactor": 0.0
      }
    },
    {
      "alphaMode": "BLEND",
      "doubleSided": true,
      "extensions": {
        "KHR_materials_unlit": {}
      },
      "name": "plants",
      "pbrMetallicRoughness": {
        "baseColorTexture": {
          "index": 0
        },
        "metallicFactor": 0.0
      }
    },
    {
      "alphaMode": "BLEND",
      "doubleSided": true,
      "extensions": {
        "KHR_materials_unlit": {}
      },
      "name": "plants_dark",
      "pbrMetallicRoughness": {
        "baseColorFactor": [
          0.41295363947775837,
          0.41295363947775837,
          0.41295363947775837,
          1.0
        ],
        "baseColorTexture": {
          "index": 0
        },
        "metallicFactor": 0.0
      }
    },
    {
      "doubleSided": true,
      "extensions": {
        "KHR_materials_unlit": {}
      },
      "name": "building",
      "pbrMetallicRoughness": {
        "baseColorTexture": {
          "index": 1
        },
        "metallicFactor": 0.0
      }
    },
    {
      "alphaMode": "BLEND",
      "doubleSided": true,
      "extensions": {
        "KHR_materials_unlit": {}
      },
      "name": "grass",
      "pbrMetallicRoughness": {
        "baseColorFactor": [
          0.04695601761341095,
          0.01588853821158409,
          0.005448604468256235,
          1.0
        ],
        "baseColorTexture": {
          "index": 2
        },
        "metallicFactor": 0.0
      }
    },
    {
      "extensions": {
        "KHR_materials_unlit": {}
      },
      "name": "material_5",
      "pbrMetallicRoughness": {
        "baseColorTexture": {
          "index": 3
        },
        "metallicFactor": 0.0
      }
    }
  ],
  "meshes": [
    {
      "name": "sky_0",
      "primitives": [
        {
          "attributes": {
            "NORMAL": 1,
            "POSITION": 0,
            "TEXCOORD_0": 2
          },
          "indices": 3,
          "material": 5,
          "mode": 4
        }
      ]
    },
    {
      "name": "grass_0",
      "primitives": [
        {
          "attributes": {
            "NORMAL": 5,
            "POSITION": 4,
            "TEXCOORD_0": 6
          },
          "indices": 7,
          "material": 4,
          "mode": 4
        }
      ]
    },
    {
      "name": "tol_0",
      "primitives": [
        {
          "attributes": {
            "NORMAL": 9,
            "POSITION": 8,
            "TEXCOORD_0": 10
          },
          "indices": 11,
          "material": 3,
          "mode": 4
        }
      ]
    },
    {
      "name": "plants_dark_0",
      "primitives": [
        {
          "attributes": {
            "NORMAL": 13,
            "POSITION": 12,
            "TEXCOORD_0": 14,
            "TEXCOORD_1": 15
          },
          "indices": 16,
          "material": 2,
          "mode": 4
        }
      ]
    },
    {
      "name": "plants_0",
      "primitives": [
        {
          "attributes": {
            "NORMAL": 18,
            "POSITION": 17,
            "TEXCOORD_0": 19,
            "TEXCOORD_1": 20
          },
          "indices": 21,
          "material": 1,
          "mode": 4
        }
      ]
    },
    {
      "name": "dem_0",
      "primitives": [
        {
          "attributes": {
            "NORMAL": 23,
            "POSITION": 22
          },
          "indices": 24,
          "material": 0,
          "mode": 4
        }
      ]
    }
  ],
  "nodes": [
    {
      "children": [
        1
      ],
      "matrix": [
        1.0,
        0.0,
        0.0,
        0.0,
        0.0,
        2.220446049250313e-16,
        -1.0,
        0.0,
        0.0,
        1.0,
        2.220446049250313e-16,
        0.0,
        0.0,
        0.0,
        0.0,
        1.0
      ],
      "name": "Sketchfab_model"
    },
    {
      "children": [
        2,
        4,
        6,
        8,
        10,
        12
      ],
      "name": "Root"
    },
    {
      "children": [
        3
      ],
      "matrix": [
        0.32879,
        -0.03162000000000001,
        0.0,
        0.0,
        0.03162000000000001,
        0.32879,
        0.0,
        0.0,
        0.0,
        0.0,
        0.3303000000000001,
        0.0,
        0.0,
        0.0,
        0.0,
        1.0
      ],
      "name": "sky"
    },
    {
      "mesh": 0,
      "name": "sky_0"
    },
    {
      "children": [
        5
      ],
      "matrix": [
        0.6799600000000001,
        -0.3612,
        -0.14941000000000004,
        0.0,
        0.3853600000000001,
        0.6696500000000002,
        0.13493000000000002,
        0.0,
        0.06543000000000002,
        -0.19039000000000003,
        0.7580300000000001,
        0.0,
        2.4849300000000003,
        -2.48969,
        -0.25031000000000003,
        1.0
      ],
      "name": "grass"
    },
    {
      "mesh": 1,
      "name": "grass_0"
    },
    {
      "children": [
        7
      ],
      "matrix": [
        1.0,
        0.0,
        0.0,
        0.0,
        0.0,
        -0.0,
        1.0,
        0.0,
        0.0,
        -1.0,
        -0.0,
        0.0,
        0.0,
        0.0,
        0.0,
        1.0
      ],
      "name": "tol"
    },
    {
      "mesh": 2,
      "name": "tol_0"
    },
    {
      "children": [
        9
      ],
      "matrix": [
        1.0,
        0.0,
        0.0,
        0.0,
        0.0,
        -0.0,
        1.0,
        0.0,
        0.0,
        -1.0,
        -0.0,
        0.0,
        0.0,
        0.0,
        0.0,
        1.0
      ],
      "name": "plants_dark"
    },
    {
      "mesh": 3,
      "name": "plants_dark_0"
    },
    {
      "children": [
        11
      ],
      "matrix": [
        1.0,
        0.0,
        0.0,
        0.0,
        0.0,
        -0.0,
        1.0,
        0.0,
        0.0,
        -1.0,
        -0.0,
        0.0,
        0.0,
        0.0,
        0.0,
        1.0
      ],
      "name": "plants"
    },
    {
      "mesh": 4,
      "name": "plants_0"
    },
    {
      "children": [
        13
      ],
      "matrix": [
        1.0,
        0.0,
        0.0,
        0.0,
        0.0,
        -0.0,
        1.0,
        0.0,
        0.0,
        -1.0,
        -0.0,
        0.0,
        0.0,
        0.0,
        0.0,
        1.0
      ],
      "name": "dem"
    },
    {
      "mesh": 5,
      "name": "dem_0"
    }
  ],
  "samplers": [
    {
      "magFilter": 9729,
      "minFilter": 9987,
      "wrapS": 10497,
      "wrapT": 10497
    }
  ],
  "scene": 0,
  "scenes": [
    {
      "name": "Sketchfab_Scene",
      "nodes": [
        0
      ]
    }
  ],
  "textures": [
    {
      "sampler": 0,
      "source": 0
    },
    {
      "sampler": 0,
      "source": 1
    },
    {
      "sampler": 0,
      "source": 2
    },
    {
      "sampler": 0,
      "source": 3
    }
  ]
}
